<?xml version="1.0" encoding="UTF-8"?>
<svg id="_Слой_1" data-name="Слой 1" xmlns="http://www.w3.org/2000/svg" viewBox="0 0 590 590">
  <defs>
    <style>
      .cls-1 {
        stroke: #fff;
        stroke-miterlimit: 10;
        stroke-width: 3px;
      }

      .cls-2 {
        fill: #fff;
      }

      .cls-3 {
        fill: #f6f6f6;
        isolation: isolate;
        opacity: .25;
      }
    </style>
  </defs>
  <g>
    <path class="cls-3" d="M590,590H0V0H590V590ZM6.1,583.9H584V6.1H6.1V583.9Z"/>
    <path d="M571.8,571.8H18.2V18.2H571.8V571.8Zm-543.5-10.1H561.7V28.3H28.3V561.7Z"/>
    <rect class="cls-1" x="43.5" y="43.5" width="503" height="503"/>
  </g>
  <path class="cls-2" d="M327.4,250.4c0-15.7-11.1-24.4-30.6-24.4h-35.9v50.6h30.2c23.4,0,36.3-9.4,36.3-26.2Zm130.6-9.1c-6.8-22-7.8-49-7-69.8,.8-21.7-16.2-41.6-38.9-41.6H178.1c-22.8,0-39.7,20-38.9,41.6,.7,20.9-.2,47.8-7,69.8-6.8,22.1-18.3,36-37.2,37.8v20.3c18.8,1.8,30.3,15.7,37.2,37.8,6.8,22,7.8,49,7,69.8-.8,21.7,16.2,41.6,38.9,41.6h234c22.8,0,39.7-20,38.9-41.6-.7-20.9,.2-47.8,7-69.8,6.8-22.1,18.3-36,37.1-37.8v-20.3c-18.8-1.8-30.3-15.8-37.1-37.8Zm-154.3,132.7h-69.7V204.4h69.4c30.8,0,51,16.7,51,42.3,0,18-13.6,34.1-31,36.9v.9c23.6,2.6,39.5,18.9,39.5,41.5,0,29.9-22.3,48-59.2,48Zm-7.1-77.4h-35.7v55.8h37.2c24.3,0,37.2-9.8,37.2-28.1,.1-18.3-13.2-27.7-38.7-27.7Z"/>
</svg>