<?xml version="1.0" encoding="utf-8"?>
<!-- Generator: Adobe Illustrator 27.0.0, SVG Export Plug-In . SVG Version: 6.00 Build 0)  -->
<svg version="1.1" id="Слой_1" xmlns="http://www.w3.org/2000/svg" xmlns:xlink="http://www.w3.org/1999/xlink" x="0px" y="0px"
	 viewBox="0 0 590 590" style="enable-background:new 0 0 590 590;" xml:space="preserve">
<style type="text/css">
	.st0{opacity:0.25;fill:#F6F6F6;enable-background:new    ;}
	.st1{enable-background:new    ;}
	.st2{fill:#FFFFFF;}
</style>
<g>
	<path class="st0" d="M590,595.8H0V5.8h590V595.8z M6.1,589.7H584V11.9H6.1V589.7z"/>
	<path d="M571.8,577.6H18.2V24h553.6V577.6z M28.3,567.5h533.4V34.1H28.3V567.5z"/>
	<rect x="43.5" y="49.3" class="st1" width="503" height="503"/>
</g>
<path class="st2" d="M327.4,256.2c0-15.7-11.1-24.4-30.6-24.4h-35.9v50.6h30.2C314.5,282.4,327.4,273,327.4,256.2z M458,247.1
	c-6.8-22-7.8-49-7-69.8c0.8-21.7-16.2-41.6-38.9-41.6h-234c-22.8,0-39.7,20-38.9,41.6c0.7,20.9-0.2,47.8-7,69.8
	c-6.8,22.1-18.3,36-37.2,37.8v20.3c18.8,1.8,30.3,15.7,37.2,37.8c6.8,22,7.8,49,7,69.8c-0.8,21.7,16.2,41.6,38.9,41.6h234
	c22.8,0,39.7-20,38.9-41.6c-0.7-20.9,0.2-47.8,7-69.8c6.8-22.1,18.3-36,37.1-37.8v-20.3C476.3,283.1,464.8,269.1,458,247.1z
	 M303.7,379.8H234V210.2h69.4c30.8,0,51,16.7,51,42.3c0,18-13.6,34.1-31,36.9v0.9c23.6,2.6,39.5,18.9,39.5,41.5
	C362.9,361.7,340.6,379.8,303.7,379.8z M296.6,302.4h-35.7v55.8h37.2c24.3,0,37.2-9.8,37.2-28.1
	C335.4,311.8,322.1,302.4,296.6,302.4z"/>
</svg>
