<?xml version="1.0" encoding="utf-8"?>
<!-- Generator: Adobe Illustrator 27.0.0, SVG Export Plug-In . SVG Version: 6.00 Build 0)  -->
<svg version="1.1" id="Слой_1" xmlns="http://www.w3.org/2000/svg" xmlns:xlink="http://www.w3.org/1999/xlink" x="0px" y="0px"
	 viewBox="0 0 590 590" style="enable-background:new 0 0 590 590;" xml:space="preserve">
<style type="text/css">
	.st0{opacity:0.25;fill:#F6F6F6;enable-background:new    ;}
	.st1{fill:#F6F6F6;}
	.st2{opacity:0.1;fill:#F6F6F6;enable-background:new    ;}
	.st3{fill:#FFFFFF;}
</style>
<g>
	<path class="st0" d="M590,590H0V0h590V590z M6.1,583.9h577.9V6.1H6.1V583.9z"/>
	<path class="st1" d="M571.8,571.8H18.2V18.2h553.6V571.8z M28.3,561.7h533.4V28.3H28.3V561.7z"/>
	<rect x="43.5" y="43.5" class="st2" width="503" height="503"/>
</g>
<path class="st3" d="M327,255.8c0-15.7-11.1-24.4-30.6-24.4h-35.9V282h30.2C314.1,282,327,272.6,327,255.8z M457.6,246.7
	c-6.8-22-7.8-49-7-69.8c0.8-21.7-16.2-41.6-38.9-41.6h-234c-22.8,0-39.7,20-38.9,41.6c0.7,20.9-0.2,47.8-7,69.8
	c-6.8,22.1-18.3,36-37.2,37.8v20.3c18.8,1.8,30.3,15.7,37.2,37.8c6.8,22,7.8,49,7,69.8c-0.8,21.7,16.2,41.6,38.9,41.6h234
	c22.8,0,39.7-20,38.9-41.6c-0.7-20.9,0.2-47.8,7-69.8c6.8-22.1,18.3-36,37.1-37.8v-20.3C475.9,282.7,464.4,268.7,457.6,246.7z
	 M303.3,379.4h-69.7V209.8H303c30.8,0,51,16.7,51,42.3c0,18-13.6,34.1-31,36.9v0.9c23.6,2.6,39.5,18.9,39.5,41.5
	C362.5,361.3,340.2,379.4,303.3,379.4z M296.2,302h-35.7v55.8h37.2c24.3,0,37.2-9.8,37.2-28.1C335,311.4,321.7,302,296.2,302z"/>
</svg>
