<?xml version="1.0" encoding="UTF-8"?>
<svg id="_Слой_1" data-name="Слой 1" xmlns="http://www.w3.org/2000/svg" viewBox="0 0 590 590">
  <defs>
    <style>
      .cls-1 {
        stroke: #fff;
        stroke-miterlimit: 10;
        stroke-width: 3px;
      }

      .cls-2 {
        fill: #ededed;
      }

      .cls-3 {
        fill: #b7b6b6;
      }

      .cls-4 {
        fill: #d0d0d0;
      }

      .cls-5 {
        fill: #f6f6f6;
        isolation: isolate;
        opacity: .25;
      }
    </style>
  </defs>
  <g>
    <path class="cls-5" d="M590,590H0V0H590V590ZM6.1,583.9H584V6.1H6.1V583.9Z"/>
    <path d="M571.8,571.8H18.2V18.2H571.8V571.8Zm-543.5-10.1H561.7V28.3H28.3V561.7Z"/>
    <rect class="cls-1" x="43.5" y="43.5" width="503" height="503"/>
  </g>
  <path class="cls-4" d="M340.3,239.5l-40,37.2-37.1-74.9,19.2-43.1c4.8-8.6,12.8-8.7,17.6,0l40.3,80.8Z"/>
  <path class="cls-3" d="M300.3,276.7l-149.7,139.2,112.5-214.1,37.2,74.9Z"/>
  <path class="cls-2" d="M384.1,182.5c7.2-6.8,14.5-4.5,16.4,5.2l38.9,226.3-129,77.5c-4.5,2.5-16.5,3.5-16.5,3.5,0,0-10.9-1.3-15.1-3.6l-128.2-75.5,233.5-233.4Z"/>
  <path class="cls-4" d="M263.1,201.8l-112.5,214.1L200.7,103c1.9-9.7,7.4-10.7,12.3-2.1l50.1,100.9Z"/>
</svg>