<?xml version="1.0" encoding="utf-8"?>
<!-- Generator: Adobe Illustrator 27.0.0, SVG Export Plug-In . SVG Version: 6.00 Build 0)  -->
<svg version="1.1" id="Слой_1" xmlns="http://www.w3.org/2000/svg" xmlns:xlink="http://www.w3.org/1999/xlink" x="0px" y="0px"
	 viewBox="0 0 590 590" style="enable-background:new 0 0 590 590;" xml:space="preserve">
<style type="text/css">
	.st0{opacity:0.25;fill:#F6F6F6;enable-background:new    ;}
	.st1{enable-background:new    ;}
	.st2{fill:#D0D0D0;}
	.st3{fill:#B7B6B6;}
	.st4{fill:#EDEDED;}
</style>
<g>
	<path class="st0" d="M590,590H0V0h590V590z M6.1,583.9H584V6.1H6.1V583.9z"/>
	<path d="M571.8,571.8H18.2V18.2h553.6V571.8z M28.3,561.7h533.4V28.3H28.3V561.7z"/>
	<rect x="43.5" y="43.5" class="st1" width="503" height="503"/>
</g>
<path class="st2" d="M340.3,239.5l-40,37.2l-37.1-74.9l19.2-43.1c4.8-8.6,12.8-8.7,17.6,0L340.3,239.5z"/>
<path class="st3" d="M300.3,276.7L150.6,415.9l112.5-214.1L300.3,276.7z"/>
<path class="st4" d="M384.1,182.5c7.2-6.8,14.5-4.5,16.4,5.2L439.4,414l-129,77.5c-4.5,2.5-16.5,3.5-16.5,3.5s-10.9-1.3-15.1-3.6
	l-128.2-75.5L384.1,182.5z"/>
<path class="st2" d="M263.1,201.8L150.6,415.9L200.7,103c1.9-9.7,7.4-10.7,12.3-2.1L263.1,201.8z"/>
</svg>
