<?xml version="1.0" encoding="utf-8"?>
<!-- Generator: Adobe Illustrator 27.0.0, SVG Export Plug-In . SVG Version: 6.00 Build 0)  -->
<svg version="1.1" id="Слой_1" xmlns="http://www.w3.org/2000/svg" xmlns:xlink="http://www.w3.org/1999/xlink" x="0px" y="0px"
	 viewBox="0 0 590 590" style="enable-background:new 0 0 590 590;" xml:space="preserve">
<style type="text/css">
	.st0{opacity:0.25;fill:#F6F6F6;enable-background:new    ;}
	.st1{fill:#F6F6F6;}
	.st2{opacity:0.1;fill:#F6F6F6;enable-background:new    ;}
	.st3{fill:#D0D0D0;}
	.st4{fill:#B7B6B6;}
	.st5{fill:#EDEDED;}
</style>
<g>
	<path class="st0" d="M590,590H0V0h590V590z M6.1,583.9h577.9V6.1H6.1V583.9z"/>
	<path class="st1" d="M571.8,571.8H18.2V18.2h553.6V571.8z M28.3,561.7h533.4V28.3H28.3V561.7z"/>
	<rect x="43.5" y="43.5" class="st2" width="503" height="503"/>
</g>
<path class="st3" d="M339.9,239.1l-40,37.2l-37.1-74.9l19.2-43.1c4.8-8.6,12.8-8.7,17.6,0L339.9,239.1z"/>
<path class="st4" d="M299.9,276.3L150.2,415.5l112.5-214.1L299.9,276.3z"/>
<path class="st5" d="M383.7,182.1c7.2-6.8,14.5-4.5,16.4,5.2L439,413.6l-129,77.5c-4.5,2.5-16.5,3.5-16.5,3.5s-10.9-1.3-15.1-3.6
	l-128.2-75.5L383.7,182.1z"/>
<path class="st3" d="M262.7,201.4L150.2,415.5l50.1-312.9c1.9-9.7,7.4-10.7,12.3-2.1L262.7,201.4z"/>
</svg>
