<?xml version="1.0" encoding="utf-8"?>
<!-- Generator: Adobe Illustrator 27.0.0, SVG Export Plug-In . SVG Version: 6.00 Build 0)  -->
<svg version="1.1" id="Слой_1" xmlns="http://www.w3.org/2000/svg" xmlns:xlink="http://www.w3.org/1999/xlink" x="0px" y="0px"
	 viewBox="0 0 590 590" style="enable-background:new 0 0 590 590;" xml:space="preserve">
<style type="text/css">
	.st0{opacity:0.25;fill:#F6F6F6;enable-background:new    ;}
	.st1{enable-background:new    ;}
	.st2{fill:#FFFFFF;}
</style>
<g>
	<path class="st0" d="M590,590H0V0h590V590z M6.1,583.9H584V6.1H6.1V583.9z"/>
	<path d="M570.8,571.8H17.2V18.2h553.6V571.8z M27.3,561.7h533.4V28.3H27.3V561.7z"/>
	<rect x="42.5" y="43.5" class="st1" width="503" height="503"/>
</g>
<path class="st2" d="M357.9,400.5l-11,19.2l-3.6,62.7c0,7-22.1,12.6-49.3,12.6s-49.3-5.6-49.3-12.6l-4.5-62l-11.6-19.8
	C260.7,414.1,326.9,413.6,357.9,400.5z M204.7,202.6l10.6,98.1c4.6-15.6,16.3-36.7,31.3-43.1c4.9-2.1,9.9-2.1,14.6,0.7
	c4.1,2.3,7.5,7.3,7.9,9.2c0.9,5.1-1.6,7.1-3.5,7.1c-2.3,0-4.1-3.6-5.3-5.7c-3.2-5.7-8-5.9-13.2-2.2c-5.4,3.9-10.1,10.5-13.4,16.2
	c-4,6.9-7.3,14.5-9.4,22c-1.2,4.4-2.3,11.4-0.5,15.5c0.8,1.7,2,2.8,3.8,2.8c3.9,0,9.6-5.2,12.3-7.9c3.5-3.5,8-9,9.8-12.5l4.1-12.1
	c2-5.3,7.7-4.4,7.7,0c0,8-2.9,10.6-7.8,27.1c-4.5,15.2-5.9,20.2-5.9,20.2c-0.5,2.2-2.7,5.9-4.9,5.9c-0.9,0-1.6-0.3-2-0.9
	c-0.8-1.1-0.7-4.1-0.6-4.9c0.2-2.5,4.9-17.3,5.7-19.7c-1.6,1.7-3.2,3.4-5,5.2c-4.2,4-11,9.2-16.8,9.2c-2.7,0-4.4-0.7-6-1.9l5.9,62.2
	c1.6,3.9,30.6,13.4,68.9,13.4c38.4,0,67.4-9.5,68.9-13.4l8.5-73.9c-4.5,4.1-9.6,9.1-15.3,11.6c-4.2,1.8-13.6,3-13.6-4.5
	c0-4.1,7.1-11.6,11.3-16.8c1.1-1.3,3.7-4.6,3.7-6.3c0-2.3-4.7-1.7-9.1,2c-2.5,2.1-4.8,4.9-6.8,7.6c-3.4,4.7-5.2,8.8-6.6,12.1
	c-4.8,11.1-3.2,6.7-7.1,17.2c-3.9,10.4-3.3,9.2-4.1,10.9c-0.7,1.5-1.7,2.7-3.1,3.5c-1.5,0.8-3.5,0.7-4.8-0.2c-0.7-0.5-1-1.5-1-2.9
	c0-0.7,0.1-1.4,0.2-2.1c1.2-4.8,6.1-14.1,11.7-26.8c1.3-2.9,0.8-2,0.6-1.8c-4.8,4.7-8.5,7-11.3,8.2c-4.5,2-10.2,2-11.3-3.2
	c-0.1-0.3-0.1-0.6-0.2-0.9c-9.2,7.2-19,9.1-15.6-6.3c-3.6,6.4-9.8,11.6-17.5,11.6c-3.2,0-5.5-1.1-6.7-4c-1.8-4.3,1-11.6,3.6-18.6
	c1.3-3.5,3.1-7.7,5.5-12.7c1.3-2.7,3.3-4.2,5.9-3.5c0.5,0.2,0.9,0.3,1.3,0.5c2,1.4,1.3,3.5,0.2,5.6c-3,5.9-5.5,10.2-7.3,16.3
	c-0.7,2.6-1.6,7,1.2,7c1.9,0,3.7-0.6,5.4-1.9c3.6-2.7,6.5-6.6,8.7-10.5c1.6-2.8,3.4-6.5,4.4-9.6c0.4-1.3,0.9-2.6,1.4-3.8
	c0.9-2,2-4,4.1-4c1,0,1.9,0.4,2.5,1.2c1.3,1.7,1,3.5,0.3,5.4c-1.6,4.4-3.7,8.3-5.4,13c-1,2.7-2.1,6.3-2.1,9.1c0,2.7,2.9,2,5.3,0.9
	c1.9-0.9,3.8-2.2,5.3-3.5c0.9-3.8,0.7-3,20.6-53.3c1-2.6,2.9-3.7,4.8-3.7c0.9,0,1.7,0.3,2.5,0.9c1.3,1,1.3,3.2,0.8,4.8
	c-0.5,1.5-0.5,1-3.5,8.2c-4.1,9.5-6.7,16.3-10.3,24.9c-1.5,3.6-6,14.8-6.8,17.4c-0.5,1.7-1,4.5,0.8,4.5c4.2,0,15.1-10.2,18-13.3
	c0.2-0.2,0.4-0.3,0.7-0.5c0.5-1.5,0.9-2.9,1.3-4.3c1.1-3,2.1-6.4,4.1-8.8c0.6-0.8,1.3-1.3,2.1-1.3c2.2,0,3.3,0.9,3.3,3.1
	c0,0.9-0.5,4-0.9,4.8c1.1-1.2,2.3-2.3,3.5-3.5c11.7-10.9,20.1-5.3,20.1,0.2c0,5.8-7,13.8-10.8,18.3c-1.3,1.5-3.8,4.2-3.9,5
	c0,1,0.7,1.4,1.7,1.4c1.6,0,5-2.7,6.3-3.7c3.9-3,9.2-7.7,13-11l11.6-106.9C359.3,215.8,228.7,215.9,204.7,202.6L204.7,202.6z
	 M384.2,196c0,16.4-180.6,16.4-180.6,0c0-6.9,40.5-12.4,90.3-12.4c7,0,13.9,0.1,20.5,0.3l9.8-38l48-50.5c1.1-1.1,4.5-0.2,7.7,2.7
	c3.2,2.9,5.2,6.2,4.1,7.3l-0.1,0.1l-44.8,47.3l-7.8,31.8C362.5,186.6,384.2,190.9,384.2,196z M330,199.6c0-0.6-0.7-1.2-2-1.6
	l-0.2,0.6c0,1-3.9,1.9-8.7,1.9s-8.7-0.9-8.7-1.9c0-0.1,0-0.2,0.1-0.2l0.2-0.5c-1.4,0.5-2.3,1.1-2.3,1.8c0,1.6,4.8,2.9,10.7,2.9
	C325.1,202.6,330,201.2,330,199.6L330,199.6z"/>
</svg>
