<?xml version="1.0" encoding="UTF-8"?>
<svg id="_Слой_1" data-name="Слой 1" xmlns="http://www.w3.org/2000/svg" viewBox="0 0 590 590">
  <defs>
    <style>
      .cls-1 {
        stroke: #fff;
        stroke-miterlimit: 10;
        stroke-width: 3px;
      }

      .cls-2 {
        fill: #fff;
      }

      .cls-3 {
        fill: #f6f6f6;
        isolation: isolate;
        opacity: .25;
      }
    </style>
  </defs>
  <g>
    <path class="cls-3" d="M590,590H0V0H590V590ZM6.1,583.9H584V6.1H6.1V583.9Z"/>
    <path d="M570.8,571.8H17.2V18.2H570.8V571.8Zm-543.5-10.1H560.7V28.3H27.3V561.7Z"/>
    <rect class="cls-1" x="42.5" y="43.5" width="503" height="503"/>
  </g>
  <path class="cls-2" d="M357.9,400.5l-11,19.2-3.6,62.7c0,7-22.1,12.6-49.3,12.6s-49.3-5.6-49.3-12.6l-4.5-62-11.6-19.8c32.1,13.5,98.3,13,129.3-.1ZM204.7,202.6l10.6,98.1c4.6-15.6,16.3-36.7,31.3-43.1,4.9-2.1,9.9-2.1,14.6,.7,4.1,2.3,7.5,7.3,7.9,9.2,.9,5.1-1.6,7.1-3.5,7.1-2.3,0-4.1-3.6-5.3-5.7-3.2-5.7-8-5.9-13.2-2.2-5.4,3.9-10.1,10.5-13.4,16.2-4,6.9-7.3,14.5-9.4,22-1.2,4.4-2.3,11.4-.5,15.5,.8,1.7,2,2.8,3.8,2.8,3.9,0,9.6-5.2,12.3-7.9,3.5-3.5,8-9,9.8-12.5l4.1-12.1c2-5.3,7.7-4.4,7.7,0,0,8-2.9,10.6-7.8,27.1-4.5,15.2-5.9,20.2-5.9,20.2-.5,2.2-2.7,5.9-4.9,5.9-.9,0-1.6-.3-2-.9-.8-1.1-.7-4.1-.6-4.9,.2-2.5,4.9-17.3,5.7-19.7-1.6,1.7-3.2,3.4-5,5.2-4.2,4-11,9.2-16.8,9.2-2.7,0-4.4-.7-6-1.9l5.9,62.2c1.6,3.9,30.6,13.4,68.9,13.4s67.4-9.5,68.9-13.4l8.5-73.9c-4.5,4.1-9.6,9.1-15.3,11.6-4.2,1.8-13.6,3-13.6-4.5,0-4.1,7.1-11.6,11.3-16.8,1.1-1.3,3.7-4.6,3.7-6.3,0-2.3-4.7-1.7-9.1,2-2.5,2.1-4.8,4.9-6.8,7.6-3.4,4.7-5.2,8.8-6.6,12.1-4.8,11.1-3.2,6.7-7.1,17.2-3.9,10.4-3.3,9.2-4.1,10.9-.7,1.5-1.7,2.7-3.1,3.5-1.5,.8-3.5,.7-4.8-.2-.7-.5-1-1.5-1-2.9,0-.7,.1-1.4,.2-2.1,1.2-4.8,6.1-14.1,11.7-26.8,1.3-2.9,.8-2,.6-1.8-4.8,4.7-8.5,7-11.3,8.2-4.5,2-10.2,2-11.3-3.2-.1-.3-.1-.6-.2-.9-9.2,7.2-19,9.1-15.6-6.3-3.6,6.4-9.8,11.6-17.5,11.6-3.2,0-5.5-1.1-6.7-4-1.8-4.3,1-11.6,3.6-18.6,1.3-3.5,3.1-7.7,5.5-12.7,1.3-2.7,3.3-4.2,5.9-3.5,.5,.2,.9,.3,1.3,.5,2,1.4,1.3,3.5,.2,5.6-3,5.9-5.5,10.2-7.3,16.3-.7,2.6-1.6,7,1.2,7,1.9,0,3.7-.6,5.4-1.9,3.6-2.7,6.5-6.6,8.7-10.5,1.6-2.8,3.4-6.5,4.4-9.6,.4-1.3,.9-2.6,1.4-3.8,.9-2,2-4,4.1-4,1,0,1.9,.4,2.5,1.2,1.3,1.7,1,3.5,.3,5.4-1.6,4.4-3.7,8.3-5.4,13-1,2.7-2.1,6.3-2.1,9.1s2.9,2,5.3,.9c1.9-.9,3.8-2.2,5.3-3.5,.9-3.8,.7-3,20.6-53.3,1-2.6,2.9-3.7,4.8-3.7,.9,0,1.7,.3,2.5,.9,1.3,1,1.3,3.2,.8,4.8-.5,1.5-.5,1-3.5,8.2-4.1,9.5-6.7,16.3-10.3,24.9-1.5,3.6-6,14.8-6.8,17.4-.5,1.7-1,4.5,.8,4.5,4.2,0,15.1-10.2,18-13.3,.2-.2,.4-.3,.7-.5,.5-1.5,.9-2.9,1.3-4.3,1.1-3,2.1-6.4,4.1-8.8,.6-.8,1.3-1.3,2.1-1.3,2.2,0,3.3,.9,3.3,3.1,0,.9-.5,4-.9,4.8,1.1-1.2,2.3-2.3,3.5-3.5,11.7-10.9,20.1-5.3,20.1,.2,0,5.8-7,13.8-10.8,18.3-1.3,1.5-3.8,4.2-3.9,5,0,1,.7,1.4,1.7,1.4,1.6,0,5-2.7,6.3-3.7,3.9-3,9.2-7.7,13-11l11.6-106.9c-23.8,13.6-154.4,13.7-178.4,.4h0Zm179.5-6.6c0,16.4-180.6,16.4-180.6,0,0-6.9,40.5-12.4,90.3-12.4,7,0,13.9,.1,20.5,.3l9.8-38,48-50.5c1.1-1.1,4.5-.2,7.7,2.7,3.2,2.9,5.2,6.2,4.1,7.3l-.1,.1-44.8,47.3-7.8,31.8c31.2,2,52.9,6.3,52.9,11.4Zm-54.2,3.6c0-.6-.7-1.2-2-1.6l-.2,.6c0,1-3.9,1.9-8.7,1.9s-8.7-.9-8.7-1.9c0-.1,0-.2,.1-.2l.2-.5c-1.4,.5-2.3,1.1-2.3,1.8,0,1.6,4.8,2.9,10.7,2.9s10.9-1.4,10.9-3h0Z"/>
</svg>