<?xml version="1.0" encoding="utf-8"?>
<!-- Generator: Adobe Illustrator 27.0.0, SVG Export Plug-In . SVG Version: 6.00 Build 0)  -->
<svg version="1.1" id="Слой_1" xmlns="http://www.w3.org/2000/svg" xmlns:xlink="http://www.w3.org/1999/xlink" x="0px" y="0px"
	 viewBox="0 0 599.5 595.3" style="enable-background:new 0 0 599.5 595.3;" xml:space="preserve">
<style type="text/css">
	.st0{opacity:0.25;fill:#F6F6F6;enable-background:new    ;}
	.st1{fill:#FFFFFF;enable-background:new    ;}
</style>
<g>
	<path class="st0" d="M595.1,593H5.1V3.1h590V593z M11.2,587H589V9.1H11.2V587z"/>
	<path d="M576.9,574.8H23.3V21.3h553.6L576.9,574.8L576.9,574.8z M33.4,564.7h533.4V31.4H33.4V564.7z"/>
	<rect x="48.3" y="46.1" class="st1" width="503" height="503"/>
	<path d="M130.9,109l31.5,357.4l141.4,47.1l142.3-47.1L477.7,109H130.9z M409.2,224.5h-166l3.7,44.6h158.6l-12.3,134l-88.4,24.4v0.3
		h-1l-89.1-24.7l-5.4-68.4h43.1l3.2,34.4l48.3,13.1l48.5-13.1l5.4-56.2H207.1l-11.6-131.5h217.7L409.2,224.5z"/>
</g>
</svg>
