<?xml version="1.0" encoding="utf-8"?>
<!-- Generator: Adobe Illustrator 27.0.0, SVG Export Plug-In . SVG Version: 6.00 Build 0)  -->
<svg version="1.1" id="Слой_1" xmlns="http://www.w3.org/2000/svg" xmlns:xlink="http://www.w3.org/1999/xlink" x="0px" y="0px"
	 viewBox="0 0 841.9 595.3" style="enable-background:new 0 0 841.9 595.3;" xml:space="preserve">
<style type="text/css">
	.st0{opacity:0.25;fill:#F6F6F6;enable-background:new    ;}
	.st1{fill:#F6F6F6;}
	.st2{opacity:0.1;fill:#F6F6F6;enable-background:new    ;}
	.st3{fill:#FFFFFF;}
</style>
<g>
	<path class="st0" d="M567.2,443.9H275.5V152.2h291.7V443.9z M278.5,440.9h285.7V155.2H278.5V440.9z"/>
	<path class="st1" d="M558.2,434.9H284.5V161.2h273.7V434.9z M289.5,429.9h263.7V166.2H289.5V429.9z"/>
	<rect x="297" y="173.7" class="st2" width="248.7" height="248.7"/>
	<path class="st3" d="M337.7,204.6l15.6,176.7l69.9,23.3l70.4-23.3l15.6-176.7H337.7z M475.3,261.7h-82.1l1.8,22.1h78.4l-6.1,66.2
		L423.7,362v0.1h-0.5L379.1,350l-2.7-33.8h21.3l1.6,17l23.9,6.5l24-6.5l2.7-27.8h-74.5l-5.7-65h107.6L475.3,261.7z"/>
</g>
</svg>
