<?xml version="1.0" encoding="utf-8"?>
<!-- Generator: Adobe Illustrator 27.0.0, SVG Export Plug-In . SVG Version: 6.00 Build 0)  -->
<svg version="1.1" id="Слой_1" xmlns="http://www.w3.org/2000/svg" xmlns:xlink="http://www.w3.org/1999/xlink" x="0px" y="0px"
	 viewBox="0 0 590 590" style="enable-background:new 0 0 590 590;" xml:space="preserve">
<style type="text/css">
	.st0{opacity:0.25;fill:#F6F6F6;enable-background:new    ;}
	.st1{fill:#FFFFFF;enable-background:new    ;}
</style>
<g>
	<path class="st0" d="M590,590H0V0h590V590z M6.1,583.9H584V6.1H6.1V583.9z"/>
	<path d="M571.8,571.8H18.2V18.2h553.6V571.8z M28.3,561.7h533.4V28.3H28.3V561.7z"/>
	<rect x="43.5" y="43.5" class="st1" width="503" height="503"/>
</g>
<path d="M93,93v404h404V93H93z M312.9,408.1c0,39.3-23.1,57.3-56.7,57.3c-30.4,0-48-15.7-57-34.7l30.9-18.7
	c6,10.6,11.4,19.5,24.4,19.5c12.4,0,20.4-4.9,20.4-23.9v-129h38V408.1L312.9,408.1z M402.7,465.3c-35.3,0-58.1-16.8-69.2-38.8
	l30.9-17.9c8.1,13.3,18.8,23.1,37.4,23.1c15.7,0,25.8-7.8,25.8-18.8c0-13-10.3-17.6-27.7-25.2l-9.5-4.1
	c-27.4-11.6-45.5-26.3-45.5-57.3c0-28.5,21.7-50.1,55.6-50.1c24.2,0,41.5,8.4,53.9,30.4l-29.6,18.9c-6.4-11.5-13.4-16.1-24.4-16.1
	c-11.1,0-18.1,7-18.1,16.2c0,11.4,7,16,23.4,23.1l9.5,4.1c32.3,13.8,50.4,28,50.4,59.7C465.6,446.6,438.7,465.3,402.7,465.3
	L402.7,465.3z"/>
</svg>
