<?xml version="1.0" encoding="utf-8"?>
<!-- Generator: Adobe Illustrator 27.0.0, SVG Export Plug-In . SVG Version: 6.00 Build 0)  -->
<svg version="1.1" id="Слой_1" xmlns="http://www.w3.org/2000/svg" xmlns:xlink="http://www.w3.org/1999/xlink" x="0px" y="0px"
	 viewBox="0 0 590 590" style="enable-background:new 0 0 590 590;" xml:space="preserve">
<style type="text/css">
	.st0{opacity:0.25;fill:#F6F6F6;enable-background:new    ;}
	.st1{fill:#FFFFFF;stroke:#000000;stroke-miterlimit:10;}
</style>
<g>
	<path class="st0" d="M590,590H0V0h590V590z M6.1,583.9H584V6.1H6.1V583.9z"/>
	<path d="M571.8,571.8H18.2V18.2h553.6V571.8z M28.3,561.7h533.4V28.3H28.3V561.7z"/>
</g>
<path class="st1" d="M292.7,417.5c-1.3,0-2.6-0.4-3.8-1l-12-7.1c-1.8-1-0.9-1.4-0.3-1.6c2.4-0.8,2.9-1,5.4-2.5
	c0.2-0.1,0.6-0.1,0.9,0.1l9.2,5.5c0.3,0.2,0.8,0.2,1.1,0l36.1-20.9c0.3-0.2,0.6-0.6,0.6-1v-41.7c0-0.4-0.2-0.8-0.6-1l-36.1-20.8
	c-0.3-0.2-0.8-0.2-1.1,0L256,346.3c-0.4,0.2-0.6,0.6-0.6,1V389c0,0.4,0.2,0.8,0.6,0.9l9.9,5.7c5.4,2.7,8.7-0.5,8.7-3.6v-41.2
	c0-0.6,0.4-1.1,1.1-1.1h4.6c0.6,0,1.1,0.4,1.1,1.1V392c0,7.2-3.9,11.2-10.7,11.2c-2.1,0-3.8,0-8.3-2.2l-9.5-5.4
	c-2.3-1.4-3.8-3.9-3.8-6.6v-41.7c0-2.7,1.4-5.2,3.8-6.6l36.1-20.9c2.3-1.3,5.3-1.3,7.6,0l36.1,20.9c2.3,1.4,3.8,3.9,3.8,6.6V389
	c0,2.7-1.4,5.2-3.8,6.6l-36.1,20.9C295.4,417.1,294.1,417.5,292.7,417.5L292.7,417.5z M321.9,376.4c0-7.8-5.2-9.9-16.4-11.4
	c-11.2-1.5-12.4-2.2-12.4-4.9c0-2.2,0.9-5.1,9.2-5.1c7.4,0,10.2,1.6,11.3,6.6c0.1,0.5,0.5,0.8,1,0.8h4.7c0.3,0,0.6-0.1,0.8-0.3
	c0.2-0.2,0.3-0.5,0.2-0.8c-0.8-8.6-6.4-12.6-18-12.6c-10.3,0-16.4,4.4-16.4,11.6c0,7.9,6.1,10.1,16,11.1c11.8,1.2,12.8,2.9,12.8,5.2
	c0,4.1-3.3,5.8-10.9,5.8c-9.6,0-11.7-2.4-12.4-7.1c-0.1-0.5-0.5-0.9-1.1-0.9h-4.7c-0.6,0-1.1,0.4-1.1,1.1c0,6.1,3.3,13.3,19.1,13.3
	C315.3,388.7,321.9,384.2,321.9,376.4L321.9,376.4z M355.9,345.1c0,3.8-3.1,6.9-6.9,6.9s-6.9-3.1-6.9-6.9c0-3.9,3.2-6.9,6.9-6.9
	C352.8,338.1,355.9,341.1,355.9,345.1z M354.8,345.1c0-3.2-2.6-5.8-5.9-5.8c-3.2,0-5.8,2.6-5.8,5.8c0,3.3,2.6,5.9,5.8,5.9
	C352.2,350.9,354.8,348.2,354.8,345.1z M352,348.9h-1.6c-0.1-0.4-0.3-2.4-0.3-2.4c-0.1-0.4-0.2-0.7-0.8-0.7h-1.4v3.1h-1.5v-7.8h2.7
	c0.9,0,2.8,0,2.8,2.1c0,1.4-0.9,1.8-1.5,1.9c1.1,0.1,1.1,0.8,1.3,1.7C351.7,347.5,351.8,348.6,352,348.9L352,348.9z M350.2,343.4
	c0-1.1-0.8-1.1-1.1-1.1h-1.2v2.2h1.2C350.1,344.6,350.2,343.9,350.2,343.4z M180.8,254.4c0-1.7-0.9-3.2-2.3-4l-38.3-22.1
	c-0.6-0.4-1.4-0.6-2.1-0.6h-0.4c-0.8,0-1.4,0.2-2.1,0.6l-38.2,22.1c-1.4,0.8-2.3,2.4-2.3,4l0.1,59.4c0,0.8,0.4,1.6,1.1,2
	s1.6,0.4,2.3,0l22.8-13.1c1.4-0.9,2.3-2.4,2.3-4v-27.8c0-1.6,0.9-3.2,2.3-4l9.7-5.6c0.8-0.4,1.5-0.6,2.3-0.6s1.6,0.2,2.3,0.6
	l9.7,5.6c1.4,0.8,2.3,2.4,2.3,4v27.8c0,1.6,0.9,3.2,2.3,4l22.8,13.1c0.7,0.4,1.6,0.4,2.3,0s1.1-1.2,1.1-2L180.8,254.4L180.8,254.4z
	 M390.3,189.6v110.3c0,1.6-0.9,3.2-2.3,4L349.7,326c-1.4,0.8-3.2,0.8-4.6,0l-38.3-22.1c-1.4-0.8-2.3-2.4-2.3-4v-44.3
	c0-1.6,0.9-3.2,2.3-4l38.3-22.1c1.4-0.8,3.2-0.8,4.6,0l9.6,5.5c1.1,0.6,2.4-0.2,2.4-1.4v-58.8c0-1.8,1.9-2.9,3.4-2l22.8,12.8
	C389.4,186.3,390.3,187.9,390.3,189.6L390.3,189.6z M361.6,270.1c0-0.4-0.2-0.8-0.6-1l-13.1-7.6c-0.4-0.2-0.8-0.2-1.2,0l-13.1,7.6
	c-0.4,0.2-0.6,0.6-0.6,1v15.2c0,0.4,0.2,0.8,0.6,1l13.1,7.6c0.4,0.2,0.8,0.2,1.1,0l13.1-7.6c0.4-0.2,0.6-0.6,0.6-1L361.6,270.1
	L361.6,270.1z M492.7,269.7c1.4-0.8,2.3-2.4,2.3-4V255c0-1.6-0.9-3.2-2.3-4l-38.1-22.1c-1.4-0.8-3.2-0.8-4.6,0L411.7,251
	c-1.4,0.8-2.3,2.4-2.3,4v44.2c0,1.7,0.9,3.2,2.3,4l38.1,21.7c1.4,0.8,3.1,0.8,4.6,0l23-12.8c1.6-0.9,1.6-3.1,0-4L438.8,286
	c-0.8-0.4-1.2-1.2-1.2-2v-13.9c0-0.8,0.4-1.6,1.2-2l12-6.9c0.7-0.4,1.6-0.4,2.3,0l12,6.9c0.7,0.4,1.2,1.2,1.2,2V281
	c0,1.8,1.9,2.9,3.5,2L492.7,269.7L492.7,269.7z M444.4,271.9c-0.2,0.2-0.4,0.4-0.4,0.8v8.5c0,0.3,0.2,0.6,0.4,0.8l7.4,4.2
	c0.2,0.2,0.6,0.2,0.9,0l7.4-4.2c0.2-0.2,0.4-0.4,0.4-0.8v-8.5c0-0.3-0.2-0.6-0.4-0.8l-7.4-4.2c-0.2-0.2-0.6-0.2-0.9,0L444.4,271.9z
	 M285.5,299.1v-44c0-1.6-1-3.2-2.4-4l-38.2-22c-1.3-0.8-3.1-0.9-4.6,0l-38.2,22c-1.4,0.8-2.4,2.3-2.4,4v44c0,1.8,1.2,3.3,2.5,4
	l38.2,22c1.5,0.9,3.2,0.8,4.6,0l38.1-22c1.1-0.6,1.9-1.7,2.2-2.9C285.4,299.8,285.5,299.4,285.5,299.1L285.5,299.1z M286.7,302.4
	l-0.2-0.4v0.6L286.7,302.4L286.7,302.4z"/>
</svg>
