<?xml version="1.0" encoding="UTF-8"?>
<svg id="_Слой_1" data-name="Слой 1" xmlns="http://www.w3.org/2000/svg" viewBox="0 0 590 590">
  <defs>
    <style>
      .cls-1 {
        stroke: #fff;
        stroke-miterlimit: 10;
        stroke-width: 3px;
      }

      .cls-2 {
        fill: #fff;
      }

      .cls-3 {
        fill: #f6f6f6;
        isolation: isolate;
        opacity: .25;
      }
    </style>
  </defs>
  <g>
    <path class="cls-3" d="M590,590H0V0H590V590ZM6.1,583.9H584V6.1H6.1V583.9Z"/>
    <path d="M571.8,571.8H18.2V18.2H571.8V571.8h0Zm-543.5-10.1H561.7V28.3H28.3V561.7Z"/>
    <rect class="cls-1" x="45.1" y="40.5" width="503" height="503"/>
  </g>
  <path class="cls-2" d="M427.3,213.1c-4.2-1.4-8.4-2.7-12.7-4,.7-2.9,1.3-5.8,2-8.7,9.6-46.6,3.3-84-18-96.3-20.5-11.8-54.1,.5-88,30-3.4,2.9-6.6,5.9-9.8,9-2.1-2-4.3-4.1-6.5-6-35.5-31.6-71.2-44.8-92.5-32.4-20.5,11.9-26.6,47.1-18,91.2,.9,4.4,1.8,8.7,2.9,13-5,1.4-9.9,3-14.5,4.6-41.7,14.5-71.6,37.3-71.6,60.9s31.9,48.8,75.2,63.7c3.5,1.2,7,2.3,10.6,3.4-1.2,4.7-2.2,9.3-3.1,14.1-8.2,43.4-1.8,77.7,18.7,89.5,21.1,12.2,56.6-.3,91.1-30.5,2.7-2.4,5.5-4.9,8.2-7.6,3.4,3.4,7,6.6,10.6,9.7,33.4,28.8,66.5,40.4,86.9,28.6,21.1-12.2,28-49.1,19.1-94.1-.7-3.4-1.5-7-2.3-10.5,2.5-.7,4.9-1.5,7.3-2.3,45.1-14.9,77.7-39.1,77.7-63.8s-30.8-46.9-73.3-61.5h0Zm-105.7-66.3c29.1-25.3,56.2-35.2,68.5-28.1,13.2,7.6,18.3,38.2,10,78.4-.5,2.7-1.1,5.2-1.8,7.8-17.3-3.9-34.9-6.7-52.6-8.3-10.2-14.5-21.2-28.4-33.3-41.5,3.1-2.9,6.1-5.6,9.2-8.3Zm-90.4,168.1c4,6.8,8,13.6,12.3,20.2-12.2-1.3-24.3-3.3-36.2-5.9,3.4-11.2,7.7-22.9,12.7-34.8,3.7,7,7.3,13.8,11.2,20.5h0Zm-23.6-94c11.2-2.5,23.2-4.5,35.6-6.1-4.1,6.5-8.2,13.1-12,19.8-3.8,6.6-7.6,13.4-11.1,20.3-5-11.6-9.1-23-12.5-34h0Zm21.4,53.8c5.2-10.8,10.8-21.3,16.7-31.7,5.9-10.4,12.3-20.5,19.1-30.4,11.7-.9,23.7-1.3,35.9-1.3s24.2,.5,35.9,1.3c6.6,9.8,13,19.9,19,30.2,6,10.3,11.6,20.9,17,31.6-5.2,10.8-10.9,21.4-16.9,31.9-5.9,10.4-12.3,20.5-18.9,30.5-11.6,.9-23.8,1.2-36,1.2s-24.1-.4-35.6-1.1c-6.8-9.9-13.2-20.1-19.2-30.5-6.3-10.3-11.8-20.9-17-31.7h0Zm141.1,40c4-6.9,7.7-13.8,11.4-20.9,5,11.3,9.4,22.8,13.2,34.6-12.1,2.7-24.4,4.8-36.7,6.2,4.2-6.4,8.2-13.2,12.1-19.9h0Zm11.2-59.7c-3.7-6.9-7.4-13.8-11.3-20.5-3.8-6.6-7.8-13.2-12-19.7,12.6,1.6,24.6,3.7,35.9,6.3-3.6,11.5-7.8,22.8-12.6,33.9Zm-80.5-87.9c8.2,8.9,15.9,18.3,23.1,28-15.5-.7-31-.7-46.5,0,7.7-10.1,15.5-19.5,23.4-28Zm-90.7-47.9c13.1-7.7,42.3,3.3,73,30.5,2,1.7,3.9,3.6,5.9,5.5-12.1,13-23.3,27-33.5,41.5-17.7,1.6-35.2,4.3-52.5,8.1-1-4-1.9-8-2.7-12.1-7.4-37.9-2.5-66.4,9.8-73.5h0Zm-19.1,205.9c-3.3-.9-6.5-2-9.7-3-16.6-5.2-35.5-13.5-49.2-24.4-7.9-5.5-13.2-13.9-14.7-23.4,0-14.3,24.7-32.6,60.3-45,4.5-1.6,9-3,13.5-4.3,5.3,17,11.7,33.6,19.1,49.7-7.4,16.4-13.9,33.2-19.3,50.4Zm91.1,76.6c-12.9,11.8-27.8,21.2-44.1,27.6-8.7,4.1-18.7,4.5-27.6,1-12.4-7.2-17.6-34.8-10.5-71.9,.9-4.4,1.8-8.8,2.9-13,17.5,3.8,35.2,6.3,53,7.7,10.3,14.6,21.6,28.6,33.8,41.7-2.5,2.4-5,4.7-7.5,6.9h0Zm19.1-19c-8-8.6-15.9-18.1-23.7-28.4,7.5,.3,15.2,.5,23,.5s15.9-.2,23.8-.5c-7.1,9.9-14.9,19.3-23.1,28.4Zm102.1,23.4c-.7,9.5-5.4,18.4-12.9,24.5-12.4,7.2-38.9-2.2-67.5-26.7-3.3-2.8-6.6-5.9-9.9-9,12-13.2,23-27.2,33-41.9,17.9-1.5,35.7-4.2,53.3-8.2,.8,3.2,1.5,6.4,2.1,9.5,3.8,16.9,4.4,34.5,1.9,51.8h0Zm14.3-83.9c-2.2,.7-4.4,1.4-6.6,2-5.5-17-12.2-33.7-19.9-49.8,7.5-15.9,13.8-32.3,19.1-49.1,4.1,1.2,8,2.4,11.7,3.7,36.4,12.5,62,31.1,62,45.3-.1,15.2-27.4,35-66.3,47.9Zm-117-11.8c19.8,0,35.8-16,35.8-35.8s-16-35.8-35.8-35.8-35.8,16-35.8,35.8,16,35.8,35.8,35.8h0Z"/>
</svg>