<?xml version="1.0" encoding="utf-8"?>
<!-- Generator: Adobe Illustrator 27.0.0, SVG Export Plug-In . SVG Version: 6.00 Build 0)  -->
<svg version="1.1" id="Слой_1" xmlns="http://www.w3.org/2000/svg" xmlns:xlink="http://www.w3.org/1999/xlink" x="0px" y="0px"
	 viewBox="0 0 590 590" style="enable-background:new 0 0 590 590;" xml:space="preserve">
<style type="text/css">
	.st0{opacity:0.25;fill:#F6F6F6;enable-background:new    ;}
	.st1{enable-background:new    ;}
	.st2{fill:#FFFFFF;}
</style>
<g>
	<path class="st0" d="M588.4,593h-590V3h590V593z M4.5,586.9h577.9V9.1H4.5V586.9z"/>
	<path d="M570.2,574.8H16.6V21.2h553.6V574.8z M26.7,564.7h533.4V31.3H26.7V564.7z"/>
	<rect x="43.5" y="43.5" class="st1" width="503" height="503"/>
</g>
<path class="st2" d="M425.7,216.1c-4.2-1.4-8.4-2.7-12.7-4c0.7-2.9,1.3-5.8,2-8.7c9.6-46.6,3.3-84-18-96.3
	c-20.5-11.8-54.1,0.5-88,30c-3.4,2.9-6.6,5.9-9.8,9c-2.1-2-4.3-4.1-6.5-6c-35.5-31.6-71.2-44.8-92.5-32.4
	c-20.5,11.9-26.6,47.1-18,91.2c0.9,4.4,1.8,8.7,2.9,13c-5,1.4-9.9,3-14.5,4.6C128.9,231,99,253.8,99,277.4
	c0,24.4,31.9,48.8,75.2,63.7c3.5,1.2,7,2.3,10.6,3.4c-1.2,4.7-2.2,9.3-3.1,14.1c-8.2,43.4-1.8,77.7,18.7,89.5
	c21.1,12.2,56.6-0.3,91.1-30.5c2.7-2.4,5.5-4.9,8.2-7.6c3.4,3.4,7,6.6,10.6,9.7c33.4,28.8,66.5,40.4,86.9,28.6
	c21.1-12.2,28-49.1,19.1-94.1c-0.7-3.4-1.5-7-2.3-10.5c2.5-0.7,4.9-1.5,7.3-2.3c45.1-14.9,77.7-39.1,77.7-63.8
	C499,253.7,468.2,230.7,425.7,216.1L425.7,216.1z M320,149.8c29.1-25.3,56.2-35.2,68.5-28.1c13.2,7.6,18.3,38.2,10,78.4
	c-0.5,2.7-1.1,5.2-1.8,7.8c-17.3-3.9-34.9-6.7-52.6-8.3c-10.2-14.5-21.2-28.4-33.3-41.5C313.9,155.2,316.9,152.5,320,149.8z
	 M229.6,317.9c4,6.8,8,13.6,12.3,20.2c-12.2-1.3-24.3-3.3-36.2-5.9c3.4-11.2,7.7-22.9,12.7-34.8
	C222.1,304.4,225.7,311.2,229.6,317.9L229.6,317.9z M206,223.9c11.2-2.5,23.2-4.5,35.6-6.1c-4.1,6.5-8.2,13.1-12,19.8
	c-3.8,6.6-7.6,13.4-11.1,20.3C213.5,246.3,209.4,234.9,206,223.9L206,223.9z M227.4,277.7c5.2-10.8,10.8-21.3,16.7-31.7
	c5.9-10.4,12.3-20.5,19.1-30.4c11.7-0.9,23.7-1.3,35.9-1.3s24.2,0.5,35.9,1.3c6.6,9.8,13,19.9,19,30.2c6,10.3,11.6,20.9,17,31.6
	c-5.2,10.8-10.9,21.4-16.9,31.9c-5.9,10.4-12.3,20.5-18.9,30.5c-11.6,0.9-23.8,1.2-36,1.2s-24.1-0.4-35.6-1.1
	c-6.8-9.9-13.2-20.1-19.2-30.5C238.1,299.1,232.6,288.5,227.4,277.7L227.4,277.7z M368.5,317.7c4-6.9,7.7-13.8,11.4-20.9
	c5,11.3,9.4,22.8,13.2,34.6c-12.1,2.7-24.4,4.8-36.7,6.2C360.6,331.2,364.6,324.4,368.5,317.7L368.5,317.7z M379.7,258
	c-3.7-6.9-7.4-13.8-11.3-20.5c-3.8-6.6-7.8-13.2-12-19.7c12.6,1.6,24.6,3.7,35.9,6.3C388.7,235.6,384.5,246.9,379.7,258z
	 M299.2,170.1c8.2,8.9,15.9,18.3,23.1,28c-15.5-0.7-31-0.7-46.5,0C283.5,188,291.3,178.6,299.2,170.1z M208.5,122.2
	c13.1-7.7,42.3,3.3,73,30.5c2,1.7,3.9,3.6,5.9,5.5c-12.1,13-23.3,27-33.5,41.5c-17.7,1.6-35.2,4.3-52.5,8.1c-1-4-1.9-8-2.7-12.1
	C191.3,157.8,196.2,129.3,208.5,122.2L208.5,122.2z M189.4,328.1c-3.3-0.9-6.5-2-9.7-3c-16.6-5.2-35.5-13.5-49.2-24.4
	c-7.9-5.5-13.2-13.9-14.7-23.4c0-14.3,24.7-32.6,60.3-45c4.5-1.6,9-3,13.5-4.3c5.3,17,11.7,33.6,19.1,49.7
	C201.3,294.1,194.8,310.9,189.4,328.1z M280.5,404.7c-12.9,11.8-27.8,21.2-44.1,27.6c-8.7,4.1-18.7,4.5-27.6,1
	c-12.4-7.2-17.6-34.8-10.5-71.9c0.9-4.4,1.8-8.8,2.9-13c17.5,3.8,35.2,6.3,53,7.7c10.3,14.6,21.6,28.6,33.8,41.7
	C285.5,400.2,283,402.5,280.5,404.7L280.5,404.7z M299.6,385.7c-8-8.6-15.9-18.1-23.7-28.4c7.5,0.3,15.2,0.5,23,0.5
	c8,0,15.9-0.2,23.8-0.5C315.6,367.2,307.8,376.6,299.6,385.7z M401.7,409.1c-0.7,9.5-5.4,18.4-12.9,24.5
	c-12.4,7.2-38.9-2.2-67.5-26.7c-3.3-2.8-6.6-5.9-9.9-9c12-13.2,23-27.2,33-41.9c17.9-1.5,35.7-4.2,53.3-8.2c0.8,3.2,1.5,6.4,2.1,9.5
	C403.6,374.2,404.2,391.8,401.7,409.1L401.7,409.1z M416,325.2c-2.2,0.7-4.4,1.4-6.6,2c-5.5-17-12.2-33.7-19.9-49.8
	c7.5-15.9,13.8-32.3,19.1-49.1c4.1,1.2,8,2.4,11.7,3.7c36.4,12.5,62,31.1,62,45.3C482.2,292.5,454.9,312.3,416,325.2z M299,313.4
	c19.8,0,35.8-16,35.8-35.8s-16-35.8-35.8-35.8s-35.8,16-35.8,35.8S279.2,313.4,299,313.4L299,313.4z"/>
</svg>
