<?xml version="1.0" encoding="utf-8"?>
<!-- Generator: Adobe Illustrator 27.0.0, SVG Export Plug-In . SVG Version: 6.00 Build 0)  -->
<svg version="1.1" id="Слой_1" xmlns="http://www.w3.org/2000/svg" xmlns:xlink="http://www.w3.org/1999/xlink" x="0px" y="0px"
	 viewBox="0 0 590 590" style="enable-background:new 0 0 590 590;" xml:space="preserve">
<style type="text/css">
	.st0{opacity:0.25;fill:#F6F6F6;enable-background:new    ;}
	.st1{fill:#F6F6F6;}
	.st2{opacity:0.1;fill:#F6F6F6;enable-background:new    ;}
	.st3{fill:#FFFFFF;}
</style>
<g>
	<path class="st0" d="M590,590H0V0h590V590z M6.1,583.9h577.9V6.1H6.1V583.9z"/>
	<path class="st1" d="M571.8,571.8H18.2V18.2h553.6V571.8z M28.3,561.7h533.4V28.3H28.3V561.7z"/>
	<rect x="43.5" y="43.5" class="st2" width="503" height="503"/>
</g>
<path class="st3" d="M419.9,249.7c-4.2-1.4-8.4-2.7-12.7-4c0.7-2.9,1.3-5.8,2-8.7c9.6-46.6,3.3-84-18-96.3
	c-20.5-11.8-54.1,0.5-88,30c-3.4,2.9-6.6,5.9-9.8,9c-2.1-2-4.3-4.1-6.5-6c-35.5-31.6-71.2-44.8-92.5-32.4
	c-20.5,11.9-26.6,47.1-18,91.2c0.9,4.4,1.8,8.7,2.9,13c-5,1.4-9.9,3-14.5,4.6c-41.7,14.5-71.6,37.3-71.6,60.9
	c0,24.4,31.9,48.8,75.2,63.7c3.5,1.2,7,2.3,10.6,3.4c-1.2,4.7-2.2,9.3-3.1,14.1c-8.2,43.4-1.8,77.7,18.7,89.5
	c21.1,12.2,56.6-0.3,91.1-30.5c2.7-2.4,5.5-4.9,8.2-7.6c3.4,3.4,7,6.6,10.6,9.7c33.4,28.8,66.5,40.4,86.9,28.6
	c21.1-12.2,28-49.1,19.1-94.1c-0.7-3.4-1.5-7-2.3-10.5c2.5-0.7,4.9-1.5,7.3-2.3c45.1-14.9,77.7-39.1,77.7-63.8
	C493.2,287.3,462.4,264.3,419.9,249.7L419.9,249.7z M314.2,183.4c29.1-25.3,56.2-35.2,68.5-28.1c13.2,7.6,18.3,38.2,10,78.4
	c-0.5,2.7-1.1,5.2-1.8,7.8c-17.3-3.9-34.9-6.7-52.6-8.3c-10.2-14.5-21.2-28.4-33.3-41.5C308.1,188.8,311.1,186.1,314.2,183.4z
	 M223.8,351.5c4,6.8,8,13.6,12.3,20.2c-12.2-1.3-24.3-3.3-36.2-5.9c3.4-11.2,7.7-22.9,12.7-34.8C216.3,338,219.9,344.8,223.8,351.5
	L223.8,351.5z M200.2,257.5c11.2-2.5,23.2-4.5,35.6-6.1c-4.1,6.5-8.2,13.1-12,19.8c-3.8,6.6-7.6,13.4-11.1,20.3
	C207.7,279.9,203.6,268.5,200.2,257.5L200.2,257.5z M221.6,311.3c5.2-10.8,10.8-21.3,16.7-31.7c5.9-10.4,12.3-20.5,19.1-30.4
	c11.7-0.9,23.7-1.3,35.9-1.3s24.2,0.5,35.9,1.3c6.6,9.8,13,19.9,19,30.2c6,10.3,11.6,20.9,17,31.6c-5.2,10.8-10.9,21.4-16.9,31.9
	c-5.9,10.4-12.3,20.5-18.9,30.5c-11.6,0.9-23.8,1.2-36,1.2s-24.1-0.4-35.6-1.1c-6.8-9.9-13.2-20.1-19.2-30.5
	C232.3,332.7,226.8,322.1,221.6,311.3L221.6,311.3z M362.7,351.3c4-6.9,7.7-13.8,11.4-20.9c5,11.3,9.4,22.8,13.2,34.6
	c-12.1,2.7-24.4,4.8-36.7,6.2C354.8,364.8,358.8,358,362.7,351.3L362.7,351.3z M373.9,291.6c-3.7-6.9-7.4-13.8-11.3-20.5
	c-3.8-6.6-7.8-13.2-12-19.7c12.6,1.6,24.6,3.7,35.9,6.3C382.9,269.2,378.7,280.5,373.9,291.6z M293.4,203.7
	c8.2,8.9,15.9,18.3,23.1,28c-15.5-0.7-31-0.7-46.5,0C277.7,221.6,285.5,212.2,293.4,203.7z M202.7,155.8c13.1-7.7,42.3,3.3,73,30.5
	c2,1.7,3.9,3.6,5.9,5.5c-12.1,13-23.3,27-33.5,41.5c-17.7,1.6-35.2,4.3-52.5,8.1c-1-4-1.9-8-2.7-12.1
	C185.5,191.4,190.4,162.9,202.7,155.8L202.7,155.8z M183.6,361.7c-3.3-0.9-6.5-2-9.7-3c-16.6-5.2-35.5-13.5-49.2-24.4
	c-7.9-5.5-13.2-13.9-14.7-23.4c0-14.3,24.7-32.6,60.3-45c4.5-1.6,9-3,13.5-4.3c5.3,17,11.7,33.6,19.1,49.7
	C195.5,327.7,189,344.5,183.6,361.7z M274.7,438.3c-12.9,11.8-27.8,21.2-44.1,27.6c-8.7,4.1-18.7,4.5-27.6,1
	c-12.4-7.2-17.6-34.8-10.5-71.9c0.9-4.4,1.8-8.8,2.9-13c17.5,3.8,35.2,6.3,53,7.7c10.3,14.6,21.6,28.6,33.8,41.7
	C279.7,433.8,277.2,436.1,274.7,438.3L274.7,438.3z M293.8,419.3c-8-8.6-15.9-18.1-23.7-28.4c7.5,0.3,15.2,0.5,23,0.5
	c8,0,15.9-0.2,23.8-0.5C309.8,400.8,302,410.2,293.8,419.3z M395.9,442.7c-0.7,9.5-5.4,18.4-12.9,24.5c-12.4,7.2-38.9-2.2-67.5-26.7
	c-3.3-2.8-6.6-5.9-9.9-9c12-13.2,23-27.2,33-41.9c17.9-1.5,35.7-4.2,53.3-8.2c0.8,3.2,1.5,6.4,2.1,9.5
	C397.8,407.8,398.4,425.4,395.9,442.7L395.9,442.7z M410.2,358.8c-2.2,0.7-4.4,1.4-6.6,2c-5.5-17-12.2-33.7-19.9-49.8
	c7.5-15.9,13.8-32.3,19.1-49.1c4.1,1.2,8,2.4,11.7,3.7c36.4,12.5,62,31.1,62,45.3C476.4,326.1,449.1,345.9,410.2,358.8z M293.2,347
	c19.8,0,35.8-16,35.8-35.8c0-19.8-16-35.8-35.8-35.8s-35.8,16-35.8,35.8S273.4,347,293.2,347L293.2,347z"/>
</svg>
