<?xml version="1.0" encoding="utf-8"?>
<!-- Generator: Adobe Illustrator 27.0.0, SVG Export Plug-In . SVG Version: 6.00 Build 0)  -->
<svg version="1.1" id="Слой_1" xmlns="http://www.w3.org/2000/svg" xmlns:xlink="http://www.w3.org/1999/xlink" x="0px" y="0px"
	 viewBox="0 0 590 590" style="enable-background:new 0 0 590 590;" xml:space="preserve">
<style type="text/css">
	.st0{opacity:0.25;fill:#F6F6F6;enable-background:new    ;}
	.st1{fill:#F6F6F6;}
	.st2{opacity:0.1;fill:#F6F6F6;enable-background:new    ;}
	.st3{fill:#FFFFFF;}
</style>
<g>
	<path class="st0" d="M590,590H0V0h590V590z M6.1,583.9h577.9V6.1H6.1V583.9z"/>
	<path class="st1" d="M571.8,571.8H18.2V18.2h553.6V571.8z M28.3,561.7h533.4V28.3H28.3V561.7z"/>
	<rect x="43.5" y="43.5" class="st2" width="503" height="503"/>
</g>
<path class="st3" d="M283.6,371.4C283.5,371.8,283.3,372.1,283.6,371.4z M439.4,317c-12.6,0-25,2.9-36.3,8.4
	c-3.7-7.4-7.5-13.9-8.1-18.8c-0.8-5.7-1.6-9.1-0.7-15.8c0.9-6.8,4.8-16.3,4.8-17s-0.9-4.1-8.9-4.2c-8.1-0.1-15,1.6-15.8,3.7
	c-1.4,3.9-2.5,7.9-3.3,11.9c-1.4,7.3-16.1,33.4-24.4,47.1c-2.8-5.3-5.1-10-5.6-13.8c-0.8-5.7-1.6-9.1-0.7-15.8
	c0.9-6.8,4.8-16.3,4.8-17c-0.1-0.7-0.9-4.1-8.9-4.2c-8.1-0.1-15,1.6-15.8,3.7c-0.8,2.1-1.7,7.1-3.3,11.9s-21.2,48.3-26.3,59.6
	c-2.6,5.8-4.9,10.4-6.5,13.5c-0.2,0.5-0.4,0.8-0.6,1.1c0.2-0.3,0.3-0.6,0.3-0.5c-1.4,2.7-2.2,4.2-2.2,4.2v0.1
	c-1.1,2-2.3,3.8-2.8,3.8c-0.4,0-1.2-5.3,0.2-12.4c2.9-15.1,9.9-38.6,9.8-39.4c-0.1-0.4,1.3-4.5-4.6-6.7c-5.7-2.1-7.8,1.4-8.3,1.4
	c-0.5,0-0.9,1.2-0.9,1.2s6.3-26.5-12.1-26.5c-11.5,0-27.5,12.6-35.4,24.1c-4.9,2.7-15.6,8.5-26.9,14.7c-4.3,2.4-8.8,4.8-12.9,7.1
	c-0.3-0.3-0.6-0.6-0.9-0.9c-22.4-23.9-63.7-40.8-61.9-72.8c0.6-11.7,4.7-42.4,79.4-79.6c61.3-30.5,110.2-22.1,118.7-3.5
	c12.1,26.6-26.2,76-89.8,83.1c-24.2,2.7-37-6.7-40.2-10.2c-3.3-3.7-3.8-3.9-5.1-3.2c-2.1,1.1-0.8,4.4,0,6.3
	c1.9,4.9,9.7,13.7,23,18.1c11.7,3.8,40.1,5.9,74.5-7.4c38.6-14.9,68.7-56.3,59.9-91c-9-35.3-67.4-46.8-122.7-27.2
	c-32.9,11.7-68.5,30.1-94.2,54c-30.4,28.5-35.3,53.3-33.3,63.7c7.1,36.8,57.9,60.8,78.2,78.6c-1,0.6-1.9,1.1-2.8,1.6
	c-10.2,5.1-48.9,25.3-58.5,46.7c-10.9,24.3,1.8,41.6,10.2,44c26.1,7.3,52.9-5.8,67.2-27.3c14.4-21.4,12.6-49.4,6-62.2
	c-0.1-0.2-0.2-0.3-0.2-0.5c2.6-1.6,5.3-3.1,8-4.7c5.2-3.1,10.2-5.9,14.7-8.3c-2.5,6.8-4.3,14.9-5.3,26.6
	c-1.1,13.8,4.6,31.6,11.9,38.6c3.3,3.1,7.2,3.1,9.6,3.1c8.6,0,12.5-7.1,16.8-15.6c5.3-10.4,10-22.4,10-22.4s-5.9,32.6,10.2,32.6
	c5.9,0,11.7-7.6,14.4-11.4v0.1c0,0,0.1-0.2,0.4-0.8c0.6-0.9,0.9-1.5,0.9-1.5v-0.2c2.4-4.1,7.6-13.4,15.4-28.8
	c10.1-19.9,19.8-44.7,19.8-44.7c0.9,5.5,2.2,10.8,3.9,16.1c1.8,5.9,5.4,12.4,8.4,18.8c-2.4,3.3-3.8,5.1-3.8,5.1c0,0,0,0.1,0.1,0.1
	c-1.9,2.5-4,5.2-6.2,7.8c-8,9.5-17.5,20.4-18.8,23.5c-1.5,3.7-1.1,6.4,1.8,8.6c2.1,1.6,5.9,1.9,9.8,1.6c7.2-0.5,12.3-2.3,14.7-3.4
	c4.5-1.6,8.7-3.8,12.6-6.6c7.8-5.8,12.6-14,12.1-24.9c-0.2-6-2.2-12-4.6-17.6c0.7-1,1.4-2.1,2.1-3.1c12.4-18.1,21.9-37.9,21.9-37.9
	c0.9,5.5,2.2,10.8,3.9,16.1c1.5,5.1,4.4,10.6,7.1,16.1c-11.6,9.4-18.8,20.4-21.3,27.6c-4.6,13.3-1,19.3,5.8,20.7
	c3.1,0.6,7.4-0.8,10.7-2.2c4.8-1.6,9.4-3.9,13.5-6.9c7.8-5.8,15.4-13.8,14.9-24.8c-0.2-4.9-1.6-9.9-3.4-14.6
	c9.8-4.1,22.6-6.4,38.8-4.5c34.8,4.1,41.6,25.8,40.3,34.9c-1.3,9.1-8.6,14.1-11.1,15.6c-2.4,1.5-3.2,2.1-3,3.2
	c0.3,1.6,1.4,1.6,3.5,1.2c2.9-0.5,18.2-7.4,18.9-24.2C496,340.2,475.5,316.8,439.4,317L439.4,317z M171.1,407.5
	c-11.5,12.6-27.6,17.3-34.6,13.3c-7.4-4.3-4.5-22.8,9.7-36.2c8.6-8.1,19.7-15.6,27.1-20.3c1.7-1,4.1-2.5,7.1-4.3
	c0.5-0.3,0.8-0.4,0.8-0.4c0.6-0.4,1.2-0.7,1.8-1.1C188.2,377.5,183.2,394.3,171.1,407.5L171.1,407.5z M255.1,350.3
	c-4,9.8-12.4,34.8-17.6,33.5c-4.4-1.1-7.1-20.2-0.9-38.9c3.1-9.4,9.8-20.7,13.7-25.1c6.3-7.1,13.2-9.3,14.9-6.5
	C267.4,317,257.6,344.2,255.1,350.3L255.1,350.3z M324.5,383.5c-1.7,0.9-3.3,1.4-4,1c-0.6-0.3,0.7-1.5,0.7-1.5s8.7-9.3,12.1-13.6
	c2-2.5,4.3-5.4,6.8-8.7c0,0.3,0.1,0.6,0.1,1C340.1,372.9,329.3,380.5,324.5,383.5L324.5,383.5z M378,371.3
	c-1.2-0.9-1.1-3.8,3.1-12.9c1.6-3.6,5.4-9.6,11.9-15.3c0.7,2.2,1.1,4.5,1.2,6.8C394.1,363.8,384,369.1,378,371.3L378,371.3z"/>
</svg>
