<?xml version="1.0" encoding="UTF-8"?>
<svg id="_Слой_1" data-name="Слой 1" xmlns="http://www.w3.org/2000/svg" viewBox="0 0 590 590">
  <defs>
    <style>
      .cls-1 {
        fill: #fff;
      }

      .cls-2 {
        opacity: .99;
        stroke: #fff;
        stroke-miterlimit: 10;
        stroke-width: 3px;
      }

      .cls-2, .cls-3 {
        isolation: isolate;
      }

      .cls-3 {
        fill: #f6f6f6;
        opacity: .25;
      }
    </style>
  </defs>
  <g>
    <path class="cls-3" d="M590,590H0V0H590V590ZM6.1,583.9H584V6.1H6.1V583.9Z"/>
    <path d="M571.8,571.8H18.2V18.2H571.8V571.8Zm-543.5-10.1H561.7V28.3H28.3V561.7Z"/>
    <rect class="cls-2" x="43.5" y="43.5" width="503" height="503"/>
  </g>
  <path class="cls-1" d="M283.6,371.7c-.1,.4-.3,.7,0,0Zm155.8-54.4c-12.6,0-25,2.9-36.3,8.4-3.7-7.4-7.5-13.9-8.1-18.8-.8-5.7-1.6-9.1-.7-15.8,.9-6.8,4.8-16.3,4.8-17s-.9-4.1-8.9-4.2c-8.1-.1-15,1.6-15.8,3.7-1.4,3.9-2.5,7.9-3.3,11.9-1.4,7.3-16.1,33.4-24.4,47.1-2.8-5.3-5.1-10-5.6-13.8-.8-5.7-1.6-9.1-.7-15.8,.9-6.8,4.8-16.3,4.8-17-.1-.7-.9-4.1-8.9-4.2-8.1-.1-15,1.6-15.8,3.7s-1.7,7.1-3.3,11.9-21.2,48.3-26.3,59.6c-2.6,5.8-4.9,10.4-6.5,13.5-.2,.5-.4,.8-.6,1.1,.2-.3,.3-.6,.3-.5-1.4,2.7-2.2,4.2-2.2,4.2v.1c-1.1,2-2.3,3.8-2.8,3.8-.4,0-1.2-5.3,.2-12.4,2.9-15.1,9.9-38.6,9.8-39.4-.1-.4,1.3-4.5-4.6-6.7-5.7-2.1-7.8,1.4-8.3,1.4s-.9,1.2-.9,1.2c0,0,6.3-26.5-12.1-26.5-11.5,0-27.5,12.6-35.4,24.1-4.9,2.7-15.6,8.5-26.9,14.7-4.3,2.4-8.8,4.8-12.9,7.1-.3-.3-.6-.6-.9-.9-22.4-23.9-63.7-40.8-61.9-72.8,.6-11.7,4.7-42.4,79.4-79.6,61.3-30.5,110.2-22.1,118.7-3.5,12.1,26.6-26.2,76-89.8,83.1-24.2,2.7-37-6.7-40.2-10.2-3.3-3.7-3.8-3.9-5.1-3.2-2.1,1.1-.8,4.4,0,6.3,1.9,4.9,9.7,13.7,23,18.1,11.7,3.8,40.1,5.9,74.5-7.4,38.6-14.9,68.7-56.3,59.9-91-9-35.3-67.4-46.8-122.7-27.2-32.9,11.7-68.5,30.1-94.2,54-30.4,28.5-35.3,53.3-33.3,63.7,7.1,36.8,57.9,60.8,78.2,78.6-1,.6-1.9,1.1-2.8,1.6-10.2,5.1-48.9,25.3-58.5,46.7-10.9,24.3,1.8,41.6,10.2,44,26.1,7.3,52.9-5.8,67.2-27.3,14.4-21.4,12.6-49.4,6-62.2-.1-.2-.2-.3-.2-.5,2.6-1.6,5.3-3.1,8-4.7,5.2-3.1,10.2-5.9,14.7-8.3-2.5,6.8-4.3,14.9-5.3,26.6-1.1,13.8,4.6,31.6,11.9,38.6,3.3,3.1,7.2,3.1,9.6,3.1,8.6,0,12.5-7.1,16.8-15.6,5.3-10.4,10-22.4,10-22.4,0,0-5.9,32.6,10.2,32.6,5.9,0,11.7-7.6,14.4-11.4v.1l.4-.8c.6-.9,.9-1.5,.9-1.5v-.2c2.4-4.1,7.6-13.4,15.4-28.8,10.1-19.9,19.8-44.7,19.8-44.7,.9,5.5,2.2,10.8,3.9,16.1,1.8,5.9,5.4,12.4,8.4,18.8-2.4,3.3-3.8,5.1-3.8,5.1,0,0,0,.1,.1,.1-1.9,2.5-4,5.2-6.2,7.8-8,9.5-17.5,20.4-18.8,23.5-1.5,3.7-1.1,6.4,1.8,8.6,2.1,1.6,5.9,1.9,9.8,1.6,7.2-.5,12.3-2.3,14.7-3.4,4.5-1.6,8.7-3.8,12.6-6.6,7.8-5.8,12.6-14,12.1-24.9-.2-6-2.2-12-4.6-17.6,.7-1,1.4-2.1,2.1-3.1,12.4-18.1,21.9-37.9,21.9-37.9,.9,5.5,2.2,10.8,3.9,16.1,1.5,5.1,4.4,10.6,7.1,16.1-11.6,9.4-18.8,20.4-21.3,27.6-4.6,13.3-1,19.3,5.8,20.7,3.1,.6,7.4-.8,10.7-2.2,4.8-1.6,9.4-3.9,13.5-6.9,7.8-5.8,15.4-13.8,14.9-24.8-.2-4.9-1.6-9.9-3.4-14.6,9.8-4.1,22.6-6.4,38.8-4.5,34.8,4.1,41.6,25.8,40.3,34.9-1.3,9.1-8.6,14.1-11.1,15.6-2.4,1.5-3.2,2.1-3,3.2,.3,1.6,1.4,1.6,3.5,1.2,2.9-.5,18.2-7.4,18.9-24.2,1.1-21.4-19.4-44.8-55.5-44.6h0Zm-268.3,90.5c-11.5,12.6-27.6,17.3-34.6,13.3-7.4-4.3-4.5-22.8,9.7-36.2,8.6-8.1,19.7-15.6,27.1-20.3,1.7-1,4.1-2.5,7.1-4.3,.5-.3,.8-.4,.8-.4,.6-.4,1.2-.7,1.8-1.1,5.2,19,.2,35.8-11.9,49h0Zm84-57.2c-4,9.8-12.4,34.8-17.6,33.5-4.4-1.1-7.1-20.2-.9-38.9,3.1-9.4,9.8-20.7,13.7-25.1,6.3-7.1,13.2-9.3,14.9-6.5,2.2,3.7-7.6,30.9-10.1,37h0Zm69.4,33.2c-1.7,.9-3.3,1.4-4,1-.6-.3,.7-1.5,.7-1.5,0,0,8.7-9.3,12.1-13.6,2-2.5,4.3-5.4,6.8-8.7,0,.3,.1,.6,.1,1-.1,11.2-10.9,18.8-15.7,21.8h0Zm53.5-12.2c-1.2-.9-1.1-3.8,3.1-12.9,1.6-3.6,5.4-9.6,11.9-15.3,.7,2.2,1.1,4.5,1.2,6.8-.1,13.9-10.2,19.2-16.2,21.4h0Z"/>
</svg>