<?xml version="1.0" encoding="utf-8"?>
<!-- Generator: Adobe Illustrator 27.0.0, SVG Export Plug-In . SVG Version: 6.00 Build 0)  -->
<svg version="1.1" id="Слой_1" xmlns="http://www.w3.org/2000/svg" xmlns:xlink="http://www.w3.org/1999/xlink" x="0px" y="0px"
	 viewBox="0 0 590 590" style="enable-background:new 0 0 590 590;" xml:space="preserve">
<style type="text/css">
	.st0{opacity:0.25;fill:#F6F6F6;enable-background:new    ;}
	.st1{opacity:0.1;fill:#F6F6F6;enable-background:new    ;}
	.st2{clip-path:url(#SVGID_00000145754956099331293680000014657436720114984353_);}
	.st3{fill:#FFFFFF;}
</style>
<g>
	<path class="st0" d="M590,590H0V0h590V590z M6.1,583.9H584V6.1H6.1V583.9z"/>
	<path d="M571.8,571.8H18.2V18.2h553.6V571.8z M28.3,561.7h533.4V28.3H28.3V561.7z"/>
	<rect x="43.5" y="43.5" class="st1" width="503" height="503"/>
</g>
<g>
	<g>
		<defs>
			<rect id="SVGID_1_" x="95" y="101.7" width="400" height="400"/>
		</defs>
		<clipPath id="SVGID_00000158722190500163324570000018334720839021661588_">
			<use xlink:href="#SVGID_1_"  style="overflow:visible;"/>
		</clipPath>
		<g style="clip-path:url(#SVGID_00000158722190500163324570000018334720839021661588_);">
			<path d="M95,301.7v-200h400v400H95"/>
			<path class="st3" d="M182.7,302.4v16.3h52v148h36.9v-148h52v-16c0-9,0-16.3-0.4-16.5c0-0.3-31.7-0.4-70.2-0.4l-70,0.3v16.4
				L182.7,302.4z M416.4,285.7c10.2,2.4,18,7,25,14.3c3.7,4,9.2,11,9.6,12.8c0,0.6-17.3,12.3-27.8,18.8c-0.4,0.3-2-1.4-3.6-4
				c-5.2-7.4-10.5-10.6-18.8-11.2c-12-0.8-20,5.5-20,16c0,3.2,0.6,5,1.8,7.6c2.7,5.5,7.7,8.8,23.2,15.6c28.6,12.3,41,20.4,48.5,32
				c8.5,13,10.4,33.4,4.7,48.7c-6.4,16.7-22,28-44.3,31.7c-7,1.2-23,1-30.5-0.3c-16-3-31.3-11-40.7-21.3c-3.7-4-10.8-14.7-10.4-15.4
				l3.8-2.4l15-8.7l11.3-6.6l2.6,3.5c3.3,5.2,10.7,12.2,15,14.6c13,6.7,30.4,5.8,39-2c3.7-3.4,5.3-7,5.3-12c0-4.6-0.7-6.7-3-10.2
				c-3.2-4.4-9.6-8-27.6-16c-20.7-8.8-29.5-14.4-37.7-23c-4.7-5.2-9-13.3-11-20c-1.5-5.8-2-20-0.6-25.7c4.3-20,19.4-34,41-38
				c7-1.4,23.5-0.8,30.4,1L416.4,285.7z"/>
		</g>
	</g>
</g>
</svg>
