<?xml version="1.0" encoding="utf-8"?>
<!-- Generator: Adobe Illustrator 27.0.0, SVG Export Plug-In . SVG Version: 6.00 Build 0)  -->
<svg version="1.1" id="Слой_1" xmlns="http://www.w3.org/2000/svg" xmlns:xlink="http://www.w3.org/1999/xlink" x="0px" y="0px"
	 viewBox="0 0 590 590" style="enable-background:new 0 0 590 590;" xml:space="preserve">
<style type="text/css">
	.st0{opacity:0.25;fill:#F6F6F6;enable-background:new    ;}
	.st1{stroke:#FFFFFF;stroke-width:3;stroke-miterlimit:10;}
	.st2{fill:#FFFFFF;stroke:#000000;stroke-width:3;stroke-miterlimit:10;}
</style>
<g>
	<path class="st0" d="M590,590H0V0h590V590z M6.1,583.9H584V6.1H6.1V583.9z"/>
	<path d="M571.8,571.8H18.2V18.2h553.6V571.8z M28.3,561.7h533.4V28.3H28.3V561.7z"/>
</g>
<rect x="43.8" y="43.8" class="st1" width="502.5" height="502.5"/>
<path class="st1" d="M287.5,410.6l-99.8-54.9V247l99.8,57.6V410.6z M301.7,410.6l99.8-54.8V247l-99.8,57.6V410.6z M194.5,234.5
	l100.1-55l100.1,55l-100.1,57.8L194.5,234.5z"/>
<path class="st2" d="M464,403.4l-162.3,91.8v-71.5l101.1-55.6L464,403.4z M475.1,393.3V201.4l-59.4,34.3v123.4L475.1,393.3z
	 M125.2,403.4l162.2,91.8v-71.5l-101.2-55.6L125.2,403.4z M114.1,393.3V201.4l59.4,34.3v123.4L114.1,393.3z M121.1,189l166.4-94.1
	V164L180,223.1L121.1,189z M468.1,189L301.7,94.8v69.1L409.2,223L468.1,189z"/>
</svg>
