<?xml version="1.0" encoding="utf-8"?>
<!-- Generator: Adobe Illustrator 27.0.0, SVG Export Plug-In . SVG Version: 6.00 Build 0)  -->
<svg version="1.1" id="Слой_1" xmlns="http://www.w3.org/2000/svg" xmlns:xlink="http://www.w3.org/1999/xlink" x="0px" y="0px"
	 viewBox="0 0 590 590" style="enable-background:new 0 0 590 590;" xml:space="preserve">
<style type="text/css">
	.st0{opacity:0.25;fill:#F6F6F6;enable-background:new    ;}
	.st1{fill:#FFFFFF;enable-background:new    ;}
	.st2{stroke:#000000;stroke-miterlimit:10;}
</style>
<g>
	<path class="st0" d="M590,590H0V0h590V590z M6.1,583.9H584V6.1H6.1V583.9z"/>
	<path d="M571.8,571.8H18.2V18.2h553.6V571.8z M28.3,561.7h533.4V28.3H28.3V561.7z"/>
	<rect x="43.5" y="43.5" class="st1" width="503" height="503"/>
	<path class="st2" d="M122.1,93.2l31.4,356.6l141.6,47l141.6-47L468,93.2H122.1z M404.1,165.2l-4.3,42.6L296,252.2l-0.3,0.1h100.5
		l-11.5,132.1l-88.5,25.9l-89-26.3l-5.8-66.6h44.1l2.9,34.5l47.4,12L345,350l3.3-55.5L198.5,294v-0.1l-0.2,0.1l-3.3-41.6l101-42.1
		l5.9-2.4H191.2l-5.2-42.6L404.1,165.2L404.1,165.2z"/>
</g>
</svg>
